<?xml version="1.0" encoding="UTF-8" standalone="no"?>
<!-- Created with Inkscape (http://www.inkscape.org/) -->

<svg
   width="100mm"
   height="100mm"
   viewBox="0 0 100 100"
   version="1.1"
   id="svg5"
   inkscape:version="1.2.1 (9c6d41e410, 2022-07-14)"
   sodipodi:docname="logos.svg"
   xmlns:inkscape="http://www.inkscape.org/namespaces/inkscape"
   xmlns:sodipodi="http://sodipodi.sourceforge.net/DTD/sodipodi-0.dtd"
   xmlns="http://www.w3.org/2000/svg"
   xmlns:svg="http://www.w3.org/2000/svg">
  <sodipodi:namedview
     id="namedview7"
     pagecolor="#505050"
     bordercolor="#ffffff"
     borderopacity="1"
     inkscape:showpageshadow="0"
     inkscape:pageopacity="0"
     inkscape:pagecheckerboard="1"
     inkscape:deskcolor="#505050"
     inkscape:document-units="mm"
     showgrid="false"
     inkscape:zoom="1.76315"
     inkscape:cx="8048.6628"
     inkscape:cy="155.97085"
     inkscape:window-width="2560"
     inkscape:window-height="1403"
     inkscape:window-x="0"
     inkscape:window-y="0"
     inkscape:window-maximized="1"
     inkscape:current-layer="layer1"
     showguides="true" />
  <defs
     id="defs2">
    <clipPath
       id="clipPath10667-36"
       clipPathUnits="userSpaceOnUse">
      <path
         sodipodi:nodetypes="ssssssssssssssssss"
         style="fill:#7bcf3e;fill-opacity:1;stroke:none"
         d="m 6926.3942,-16.111198 c -6.0323,-2.2e-5 -10.8899,3.303726 -10.8899,7.4061379 V 27.580368 c 0,4.102412 4.8576,7.401908 10.8899,7.401908 h 108.883 c 6.0324,0 10.8903,-3.299496 10.8903,-7.401908 V -8.7050601 c 0,-4.1024119 -4.8579,-7.4061379 -10.8903,-7.4061379 z m 0,57.153809 c -6.0323,0 -10.8899,3.303748 -10.8899,7.40616 v 7.406138 c 0,4.102412 4.8576,7.401886 10.8899,7.401886 h 108.883 c 6.0324,0 10.8903,-3.299474 10.8903,-7.401886 v -7.406138 c 0,-4.102412 -4.8579,-7.40616 -10.8903,-7.40616 z"
         id="path10669-7"
         inkscape:connector-curvature="0" />
    </clipPath>
  </defs>
  <g
     inkscape:label="Layer 1"
     inkscape:groupmode="layer"
     id="layer1"
     transform="translate(-1980)">
    <g
       id="g290238"
       transform="matrix(0.69218462,0,0,0.69218462,2049.1843,16.959675)">
      <g
         id="g11625"
         transform="matrix(0.26245773,0,0,0.385924,-1894.7524,23.687564)"
         clip-path="url(#clipPath10667-36)"
         style="display:inline;stroke-width:0.220642">
        <g
           style="fill:#79db32;stroke:none;stroke-width:0.220642"
           transform="matrix(0.85474146,-0.66198154,0.75491376,0.74952014,6633.8434,-400.49543)"
           inkscape:label="Delaunay"
           id="g11627">
          <path
             inkscape:connector-curvature="0"
             d="m -114.14609,448.17209 34.874148,8.58365 9.253136,-17.16724 z"
             style="fill:#6cc82d;stroke:none;stroke-width:0.220642"
             id="path11629" />
          <path
             inkscape:connector-curvature="0"
             d="M -8.7693122,473.92294 -70.018806,439.5885 -41.489052,465.33932 Z"
             style="fill:#7fd138;stroke:none;stroke-width:0.220642"
             id="path11631" />
          <path
             inkscape:connector-curvature="0"
             d="m -79.271942,456.75574 37.78289,8.58358 -28.529754,-25.75082 z"
             style="fill:#77cb30;stroke:none;stroke-width:0.220642"
             id="path11633" />
          <path
             inkscape:connector-curvature="0"
             d="m -102.17067,491.09021 22.898728,-34.33447 -34.874148,-8.58365 z"
             style="fill:#9ad33e;stroke:none;stroke-width:0.220642"
             id="path11635" />
          <path
             inkscape:connector-curvature="0"
             d="m -138.72661,482.50656 36.55594,8.58365 -11.97542,-42.91812 z"
             style="fill:#7fcd31;stroke:none;stroke-width:0.220642"
             id="path11637" />
          <path
             inkscape:connector-curvature="0"
             d="m -79.271942,456.75574 20.775837,51.50171 17.007053,-42.91813 z"
             style="fill:#7dcd30;stroke:none;stroke-width:0.220642"
             id="path11639" />
          <path
             inkscape:connector-curvature="0"
             d="m -102.17067,491.09021 43.674565,17.16724 -20.775837,-51.50171 z"
             style="fill:#79c931;stroke:none;stroke-width:0.220642"
             id="path11641" />
          <path
             inkscape:connector-curvature="0"
             d="m -41.489052,465.33932 22.206545,51.50174 10.5131948,-42.91812 z"
             style="fill:#8dd63d;stroke:none;stroke-width:0.220642"
             id="path11643" />
          <path
             inkscape:connector-curvature="0"
             d="M -19.282507,516.84106 16.965498,499.67383 -8.7693122,473.92294 Z"
             style="fill:#81cd31;stroke:none;stroke-width:0.220642"
             id="path11645" />
          <path
             inkscape:connector-curvature="0"
             d="m -58.496105,508.25745 39.213598,8.58361 -22.206545,-51.50174 z"
             style="fill:#83d03d;stroke:none;stroke-width:0.220642"
             id="path11647" />
          <path
             inkscape:connector-curvature="0"
             d="m -102.17067,491.09021 23.062409,34.33447 20.612156,-17.16723 z"
             style="fill:#95d238;stroke:none;stroke-width:0.220642"
             id="path11649" />
          <path
             inkscape:connector-curvature="0"
             d="m -19.282507,516.84106 33.955797,17.16718 2.292208,-34.33441 z"
             style="fill:#52c22d;stroke:none;stroke-width:0.220642"
             id="path11651" />
          <path
             inkscape:connector-curvature="0"
             d="m -138.72661,482.50656 21.90048,60.0853 14.65546,-51.50165 z"
             style="fill:#6ed036;stroke:none;stroke-width:0.220642"
             id="path11653" />
          <path
             inkscape:connector-curvature="0"
             d="m -116.82613,542.59186 37.717869,-17.16718 -23.062409,-34.33447 z"
             style="fill:#8ace3d;stroke:none;stroke-width:0.220642"
             id="path11655" />
          <path
             inkscape:connector-curvature="0"
             d="m -42.436211,551.17554 23.153704,-34.33448 -39.213598,-8.58361 z"
             style="fill:#79d841;stroke:none;stroke-width:0.220642"
             id="path11657" />
          <path
             inkscape:connector-curvature="0"
             d="m -79.108261,525.42468 36.67205,25.75086 -16.059894,-42.91809 z"
             style="fill:#7ad844;stroke:none;stroke-width:0.220642"
             id="path11659" />
          <path
             inkscape:connector-curvature="0"
             d="M -10.810422,559.75916 14.67329,534.00824 -19.282507,516.84106 Z"
             style="fill:#78d235;stroke:none;stroke-width:0.220642"
             id="path11661" />
          <path
             inkscape:connector-curvature="0"
             d="m -42.436211,551.17554 31.625789,8.58362 -8.472085,-42.9181 z"
             style="fill:#9edc53;stroke:none;stroke-width:0.220642"
             id="path11663" />
          <path
             inkscape:connector-curvature="0"
             d="m -77.325806,568.34277 34.889595,-17.16723 -36.67205,-25.75086 z"
             style="fill:#3ecc30;stroke:none;stroke-width:0.220642"
             id="path11665" />
          <path
             inkscape:connector-curvature="0"
             d="m -116.82613,542.59186 39.500324,25.75091 -1.782455,-42.91809 z"
             style="fill:#72d436;stroke:none;stroke-width:0.220642"
             id="path11667" />
          <path
             inkscape:connector-curvature="0"
             d="M -10.810422,559.75916 34.224415,576.92639 14.67329,534.00824 Z"
             style="fill:#77cd3d;stroke:none;stroke-width:0.220642"
             id="path11669" />
          <path
             inkscape:connector-curvature="0"
             d="m -107.34646,585.51001 30.020654,-17.16724 -39.500324,-25.75091 z"
             style="fill:#7fd236;stroke:none;stroke-width:0.220642"
             id="path11671" />
          <path
             inkscape:connector-curvature="0"
             d="m -39.004448,594.09363 28.194026,-34.33447 -31.625789,-8.58362 z"
             style="fill:#a9d62c;stroke:none;stroke-width:0.220642"
             id="path11673" />
          <path
             inkscape:connector-curvature="0"
             d="m -77.325806,568.34277 38.321358,25.75086 -3.431763,-42.91809 z"
             style="fill:#69d03e;stroke:none;stroke-width:0.220642"
             id="path11675" />
          <path
             inkscape:connector-curvature="0"
             d="M 3.3373265,602.67725 34.224415,576.92639 -10.810422,559.75916 Z"
             style="fill:#76c733;stroke:none;stroke-width:0.220642"
             id="path11677" />
          <path
             inkscape:connector-curvature="0"
             d="M 34.224415,576.92639 16.965498,499.67383 14.67329,534.00824 Z"
             style="fill:#6cd43f;stroke:none;stroke-width:0.220642"
             id="path11679" />
          <path
             inkscape:connector-curvature="0"
             d="M -39.004448,594.09363 3.3373265,602.67725 -10.810422,559.75916 Z"
             style="fill:#9ad43a;stroke:none;stroke-width:0.220642"
             id="path11681" />
          <path
             inkscape:connector-curvature="0"
             d="m -107.34646,585.51001 68.342012,8.58362 -38.321358,-25.75086 z"
             style="fill:#85d32e;stroke:none;stroke-width:0.220642"
             id="path11683" />
          <path
             inkscape:connector-curvature="0"
             d="m -138.72661,482.50656 31.38015,103.00345 -9.47967,-42.91815 z"
             style="fill:#a7d63a;stroke:none;stroke-width:0.220642"
             id="path11685" />
          <path
             inkscape:connector-curvature="0"
             d="M -107.34646,585.51001 3.3373265,602.67725 -39.004448,594.09363 Z"
             style="fill:#60d231;stroke:none;stroke-width:0.220642"
             id="path11687" />
        </g>
        <g
           id="g11689"
           inkscape:label="Delaunay"
           transform="matrix(0.85474146,-0.66198154,0.75491376,0.74952014,6633.8434,-400.49543)"
           style="fill:#79db32;stroke:none;stroke-width:0.220642">
          <path
             id="path11691"
             style="fill:#6cc82d;stroke:none;stroke-width:0.220642"
             d="m -114.14609,448.17209 34.874148,8.58365 9.253136,-17.16724 z"
             inkscape:connector-curvature="0" />
          <path
             id="path11693"
             style="fill:#7fd138;stroke:none;stroke-width:0.220642"
             d="M -8.7693122,473.92294 -70.018806,439.5885 -41.489052,465.33932 Z"
             inkscape:connector-curvature="0" />
          <path
             id="path11695"
             style="fill:#77cb30;stroke:none;stroke-width:0.220642"
             d="m -79.271942,456.75574 37.78289,8.58358 -28.529754,-25.75082 z"
             inkscape:connector-curvature="0" />
          <path
             id="path11697"
             style="fill:#9ad33e;stroke:none;stroke-width:0.220642"
             d="m -102.17067,491.09021 22.898728,-34.33447 -34.874148,-8.58365 z"
             inkscape:connector-curvature="0" />
          <path
             id="path11699"
             style="fill:#7fcd31;stroke:none;stroke-width:0.220642"
             d="m -138.72661,482.50656 36.55594,8.58365 -11.97542,-42.91812 z"
             inkscape:connector-curvature="0" />
          <path
             id="path11701"
             style="fill:#7dcd30;stroke:none;stroke-width:0.220642"
             d="m -79.271942,456.75574 20.775837,51.50171 17.007053,-42.91813 z"
             inkscape:connector-curvature="0" />
          <path
             id="path11703"
             style="fill:#79c931;stroke:none;stroke-width:0.220642"
             d="m -102.17067,491.09021 43.674565,17.16724 -20.775837,-51.50171 z"
             inkscape:connector-curvature="0" />
          <path
             id="path11705"
             style="fill:#8dd63d;stroke:none;stroke-width:0.220642"
             d="m -41.489052,465.33932 22.206545,51.50174 10.5131948,-42.91812 z"
             inkscape:connector-curvature="0" />
          <path
             id="path11707"
             style="fill:#81cd31;stroke:none;stroke-width:0.220642"
             d="M -19.282507,516.84106 16.965498,499.67383 -8.7693122,473.92294 Z"
             inkscape:connector-curvature="0" />
          <path
             id="path11709"
             style="fill:#83d03d;stroke:none;stroke-width:0.220642"
             d="m -58.496105,508.25745 39.213598,8.58361 -22.206545,-51.50174 z"
             inkscape:connector-curvature="0" />
          <path
             id="path11711"
             style="fill:#95d238;stroke:none;stroke-width:0.220642"
             d="m -102.17067,491.09021 23.062409,34.33447 20.612156,-17.16723 z"
             inkscape:connector-curvature="0" />
          <path
             id="path11713"
             style="fill:#52c22d;stroke:none;stroke-width:0.220642"
             d="m -19.282507,516.84106 33.955797,17.16718 2.292208,-34.33441 z"
             inkscape:connector-curvature="0" />
          <path
             id="path11715"
             style="fill:#6ed036;stroke:none;stroke-width:0.220642"
             d="m -138.72661,482.50656 21.90048,60.0853 14.65546,-51.50165 z"
             inkscape:connector-curvature="0" />
          <path
             id="path11717"
             style="fill:#8ace3d;stroke:none;stroke-width:0.220642"
             d="m -116.82613,542.59186 37.717869,-17.16718 -23.062409,-34.33447 z"
             inkscape:connector-curvature="0" />
          <path
             id="path11719"
             style="fill:#79d841;stroke:none;stroke-width:0.220642"
             d="m -42.436211,551.17554 23.153704,-34.33448 -39.213598,-8.58361 z"
             inkscape:connector-curvature="0" />
          <path
             id="path11721"
             style="fill:#7ad844;stroke:none;stroke-width:0.220642"
             d="m -79.108261,525.42468 36.67205,25.75086 -16.059894,-42.91809 z"
             inkscape:connector-curvature="0" />
          <path
             id="path11723"
             style="fill:#78d235;stroke:none;stroke-width:0.220642"
             d="M -10.810422,559.75916 14.67329,534.00824 -19.282507,516.84106 Z"
             inkscape:connector-curvature="0" />
          <path
             id="path11725"
             style="fill:#9edc53;stroke:none;stroke-width:0.220642"
             d="m -42.436211,551.17554 31.625789,8.58362 -8.472085,-42.9181 z"
             inkscape:connector-curvature="0" />
          <path
             id="path11727"
             style="fill:#3ecc30;stroke:none;stroke-width:0.220642"
             d="m -77.325806,568.34277 34.889595,-17.16723 -36.67205,-25.75086 z"
             inkscape:connector-curvature="0" />
          <path
             id="path11729"
             style="fill:#72d436;stroke:none;stroke-width:0.220642"
             d="m -116.82613,542.59186 39.500324,25.75091 -1.782455,-42.91809 z"
             inkscape:connector-curvature="0" />
          <path
             id="path11731"
             style="fill:#77cd3d;stroke:none;stroke-width:0.220642"
             d="M -10.810422,559.75916 34.224415,576.92639 14.67329,534.00824 Z"
             inkscape:connector-curvature="0" />
          <path
             id="path11733"
             style="fill:#7fd236;stroke:none;stroke-width:0.220642"
             d="m -107.34646,585.51001 30.020654,-17.16724 -39.500324,-25.75091 z"
             inkscape:connector-curvature="0" />
          <path
             id="path11735"
             style="fill:#a9d62c;stroke:none;stroke-width:0.220642"
             d="m -39.004448,594.09363 28.194026,-34.33447 -31.625789,-8.58362 z"
             inkscape:connector-curvature="0" />
          <path
             id="path11737"
             style="fill:#69d03e;stroke:none;stroke-width:0.220642"
             d="m -77.325806,568.34277 38.321358,25.75086 -3.431763,-42.91809 z"
             inkscape:connector-curvature="0" />
          <path
             id="path11739"
             style="fill:#76c733;stroke:none;stroke-width:0.220642"
             d="M 3.3373265,602.67725 34.224415,576.92639 -10.810422,559.75916 Z"
             inkscape:connector-curvature="0" />
          <path
             id="path11741"
             style="fill:#6cd43f;stroke:none;stroke-width:0.220642"
             d="M 34.224415,576.92639 16.965498,499.67383 14.67329,534.00824 Z"
             inkscape:connector-curvature="0" />
          <path
             id="path11743"
             style="fill:#9ad43a;stroke:none;stroke-width:0.220642"
             d="M -39.004448,594.09363 3.3373265,602.67725 -10.810422,559.75916 Z"
             inkscape:connector-curvature="0" />
          <path
             id="path11745"
             style="fill:#85d32e;stroke:none;stroke-width:0.220642"
             d="m -107.34646,585.51001 68.342012,8.58362 -38.321358,-25.75086 z"
             inkscape:connector-curvature="0" />
          <path
             id="path11747"
             style="fill:#a7d63a;stroke:none;stroke-width:0.220642"
             d="m -138.72661,482.50656 31.38015,103.00345 -9.47967,-42.91815 z"
             inkscape:connector-curvature="0" />
          <path
             id="path11749"
             style="fill:#60d231;stroke:none;stroke-width:0.220642"
             d="M -107.34646,585.51001 3.3373265,602.67725 -39.004448,594.09363 Z"
             inkscape:connector-curvature="0" />
        </g>
      </g>
      <g
         transform="matrix(0.43757162,0,0,0.43757162,87.418244,-405.13291)"
         id="g26021"
         style="display:inline;stroke-width:0.604663">
        <g
           id="g26019"
           transform="translate(15.434597,40)"
           style="stroke-width:0.604663">
          <text
             xml:space="preserve"
             style="font-style:normal;font-weight:normal;font-size:18.1899px;line-height:0%;font-family:sans-serif;letter-spacing:0px;word-spacing:0px;fill:#294172;fill-opacity:1;stroke:none;stroke-width:0.644976"
             x="-396.92352"
             y="1063.8689"
             id="text26017"><tspan
               sodipodi:role="line"
               id="tspan26015"
               x="-396.92352"
               y="1063.8689"
               style="font-style:normal;font-variant:normal;font-weight:500;font-stretch:normal;font-size:30.8931px;line-height:125%;font-family:Montserrat;-inkscape-font-specification:'Montserrat Medium';text-align:start;writing-mode:lr-tb;text-anchor:start;fill:#294172;fill-opacity:1;stroke-width:0.644976">WORKSTATION</tspan></text>
        </g>
      </g>
      <g
         id="g2239"
         style="fill:#51a2da;fill-opacity:1;stroke-width:1.27854"
         transform="matrix(0.27161047,0,0,0.27161047,-100.72883,25.23297)">
        <path
           d="m 96.729167,125.3578 c -3.595373,1.38954 -6.03555,4.80292 -6.045574,9.01632 -0.0105,4.41352 3.082522,10.10943 9.487987,10.15149 4.30838,0.0283 6.46291,-1.58283 7.62603,-2.6768 0.77153,-0.68369 0.8255,-1.87009 0.11854,-2.61974 -0.70838,-0.75106 -1.89761,-0.76906 -2.6268,-0.0385 -0.86818,0.81562 -2.14666,2.02425 -5.772524,1.62173 -1.555755,-0.17216 -3.227339,-1.43528 -3.785318,-2.40173 l 11.879842,-5.05073 c 0.9084,-0.40358 1.32573,-1.45803 0.94121,-2.37421 -2.12076,-4.1731 -5.88103,-7.92444 -11.823393,-5.62783 z m 7.456683,5.48995 -9.885684,4.22249 c -0.705852,-2.63428 2.187448,-5.73353 3.76568,-6.31024 2.366314,-0.86468 4.977204,0.10837 6.120004,2.08775 z"
           style="fill:#51a2da;fill-opacity:1;fill-rule:evenodd;stroke:none;stroke-width:1.29884"
           id="path2223"
           sodipodi:nodetypes="ssscccccccsccsc" />
        <path
           id="path2225"
           style="fill:#51a2da;fill-opacity:1;stroke-width:37.9912;stroke-linecap:round;stroke-linejoin:round"
           d="m 142.75841,124.51519 a 10.043481,9.9623653 0 0 0 -10.04462,9.9635 10.043481,9.9623653 0 0 0 10.04462,9.96093 10.043481,9.9623653 0 0 0 10.04204,-9.96093 10.043481,9.9623653 0 0 0 -10.04204,-9.9635 z m 0,3.73185 a 6.2822799,6.2315417 0 0 1 6.28239,6.23165 6.2822799,6.2315417 0 0 1 -6.28239,6.23165 6.2822799,6.2315417 0 0 1 -6.2824,-6.23165 6.2822799,6.2315417 0 0 1 6.2824,-6.23165 z" />
        <path
           style="color:#000000;font-style:normal;font-variant:normal;font-weight:normal;font-stretch:normal;font-size:medium;line-height:normal;font-family:sans-serif;font-variant-ligatures:normal;font-variant-position:normal;font-variant-caps:normal;font-variant-numeric:normal;font-variant-alternates:normal;font-feature-settings:normal;text-indent:0;text-align:start;text-decoration:none;text-decoration-line:none;text-decoration-style:solid;text-decoration-color:#000000;letter-spacing:normal;word-spacing:normal;text-transform:none;writing-mode:lr-tb;direction:ltr;text-orientation:mixed;dominant-baseline:auto;baseline-shift:baseline;text-anchor:start;white-space:normal;shape-padding:0;clip-rule:nonzero;display:inline;overflow:visible;visibility:visible;isolation:auto;mix-blend-mode:normal;color-interpolation:sRGB;color-interpolation-filters:linearRGB;solid-color:#000000;solid-opacity:1;vector-effect:none;fill:#51a2da;fill-opacity:1;fill-rule:nonzero;stroke:none;stroke-width:7.79293;stroke-linecap:round;stroke-linejoin:round;stroke-miterlimit:4;stroke-dasharray:none;stroke-dashoffset:0;stroke-opacity:1;color-rendering:auto;image-rendering:auto;shape-rendering:auto;text-rendering:auto;enable-background:accumulate"
           d="m 157.27615,124.6433 c -1.59548,0 -1.86142,1.31669 -1.85308,1.84776 v 15.98997 c -0.0436,1.03365 0.81202,1.89464 1.88299,1.89464 1.07096,0 1.92667,-0.86099 1.88297,-1.89464 0,0 0.0284,-5.94671 0,-9.75342 -0.0284,-3.80671 3.06985,-4.63179 4.14789,-4.63179 0.80054,0 1.44015,0.44589 2.0745,0.42206 0.94151,-0.0354 1.71459,-0.6668 1.71459,-1.77397 -0.0283,-1.78855 -2.22269,-2.04245 -3.84053,-2.00941 -1.61785,0.0331 -2.9842,0.52982 -4.16721,1.2363 0,0 -0.24663,-1.3275 -1.84212,-1.3275 z"
           id="path2227"
           inkscape:connector-curvature="0"
           sodipodi:nodetypes="zccsczcsczcz" />
        <g
           style="fill:#51a2da;fill-opacity:1;stroke-width:2.08199"
           transform="matrix(1.7992734,0,0,1.7380239,67.446745,-121.99926)"
           id="g2231">
          <path
             style="color:#000000;font-style:normal;font-variant:normal;font-weight:normal;font-stretch:normal;font-size:medium;line-height:normal;font-family:sans-serif;font-variant-ligatures:normal;font-variant-position:normal;font-variant-caps:normal;font-variant-numeric:normal;font-variant-alternates:normal;font-feature-settings:normal;text-indent:0;text-align:start;text-decoration:none;text-decoration-line:none;text-decoration-style:solid;text-decoration-color:#000000;letter-spacing:normal;word-spacing:normal;text-transform:none;writing-mode:lr-tb;direction:ltr;text-orientation:mixed;dominant-baseline:auto;baseline-shift:baseline;text-anchor:start;white-space:normal;shape-padding:0;clip-rule:nonzero;display:inline;overflow:visible;visibility:visible;opacity:1;isolation:auto;mix-blend-mode:normal;color-interpolation:sRGB;color-interpolation-filters:linearRGB;solid-color:#000000;solid-opacity:1;vector-effect:none;fill:#51a2da;fill-opacity:1;fill-rule:nonzero;stroke:none;stroke-width:4.40682;stroke-linecap:butt;stroke-linejoin:miter;stroke-miterlimit:4;stroke-dasharray:none;stroke-dashoffset:0;stroke-opacity:1;color-rendering:auto;image-rendering:auto;shape-rendering:auto;text-rendering:auto;enable-background:accumulate"
             d="m 60.088341,141.88715 c -1.393394,0 -2.398273,0.42786 -3.13079,0.97048 -1.110459,0.82303 0.08453,2.54386 1.19499,1.72083 0.505399,-0.37438 0.881229,-0.57413 1.9358,-0.57413 1.312636,0.0273 2.368475,0.53812 2.368475,1.55443 -0.703746,0.461 -3.763534,0.84205 -5.406566,1.8093 -1.643032,0.96724 -1.555977,2.18804 -1.555977,2.98017 0,1.73757 1.769154,2.90976 3.301505,2.90976 1.532352,0 2.182891,-0.33275 3.682046,-1.39626 v 0.30438 c -0.04845,1.45961 2.09629,1.45961 2.047845,0 v -6.23787 c 0.0066,-2.58701 -1.787667,-4.00169 -4.437328,-4.04109 z m 2.439505,5.75572 c -5.12e-4,0.68595 0.0092,0.8837 -0.009,1.56941 -0.004,0.8235 -0.503683,1.20524 -1.026925,1.52032 -0.523236,0.31508 -1.586095,0.59147 -2.201906,0.62167 -0.710308,0.0243 -1.65271,-0.1418 -1.702203,-1.01389 5.12e-4,-0.5264 0.246817,-0.85289 0.65127,-1.21646 0.957742,-0.74385 2.255423,-0.99358 4.288768,-1.48105 z"
             id="path2229"
             inkscape:connector-curvature="0"
             sodipodi:nodetypes="ccccczszcccccscscccss" />
        </g>
        <path
           style="font-style:normal;font-variant:normal;font-weight:bold;font-stretch:normal;font-size:medium;line-height:25px;font-family:Comfortaa;-inkscape-font-specification:Comfortaa;letter-spacing:0px;word-spacing:0px;fill:#51a2da;fill-opacity:1;stroke:none;stroke-width:1.96187px;stroke-linecap:butt;stroke-linejoin:miter;stroke-opacity:1"
           d="m 128.56291,116.32562 c -1.15198,-0.0687 -2.00005,1.07152 -1.82333,2.15483 v 8.36367 c -3.63641,-3.04884 -9.55863,-2.83682 -12.91558,0.5392 -3.39481,3.02498 -4.03972,8.51062 -1.57068,12.28835 1.81366,2.85198 5.13136,4.88571 8.55043,4.72423 2.14993,-0.0196 4.2827,-0.9455 5.93583,-2.31651 -0.16962,1.08236 0.66623,2.22553 1.82333,2.15604 1.13581,0.0506 2.01523,-1.07045 1.84088,-2.15482 -0.0197,-8.04418 0.0197,-16.08885 -0.0197,-24.13274 -0.0591,-0.90718 -0.92676,-1.65309 -1.83241,-1.62225 z m -7.9771,12.01866 c 3.28298,-0.0857 6.21551,2.86987 6.15377,6.12271 0.069,3.25587 -2.87355,6.20634 -6.15377,6.12273 -3.11889,0.0827 -5.97784,-2.55935 -6.1372,-5.65665 -0.33212,-3.1928 2.28898,-6.30485 5.49957,-6.55826 0.21182,-0.0207 0.42464,-0.0306 0.63763,-0.0306 z"
           id="path2233"
           inkscape:connector-curvature="0"
           sodipodi:nodetypes="ccccccccccccccccccc" />
        <g
           style="fill:#51a2da;fill-opacity:1;stroke-width:2.1356"
           transform="matrix(1.7361841,0,0,1.7118711,84.821887,-122.89238)"
           id="g2237">
          <path
             style="font-style:normal;font-variant:normal;font-weight:bold;font-stretch:normal;font-size:medium;line-height:25px;font-family:Comfortaa;-inkscape-font-specification:Comfortaa;letter-spacing:0px;word-spacing:0px;fill:#51a2da;fill-opacity:1;stroke:none;stroke-width:4.52034;stroke-linecap:butt;stroke-linejoin:miter;stroke-miterlimit:4;stroke-dasharray:none;stroke-opacity:1"
             d="m -2.5312666,143.62929 v 11.47421 c -0.003,1.4145 2.12023294,1.4145 2.11718234,0 v -7.65727 H 1.7635608 c 0.5092674,0 0.9446445,-0.37386 0.9446445,-0.9741 0,-0.60024 -0.4664127,-0.9648 -0.9446445,-0.9648 h -2.17764176 v -1.76487 c 0,-1.1293 0.8711995,-2.06801 2.62476896,-2.04625 0.6099425,0.008 0.8261384,0.1567 1.048907,0.29442 1.2161282,0.81695 2.3869012,-1.07509 1.1131122,-1.79886 -0.7812122,-0.48483 -1.5111158,-0.65571 -2.3819993,-0.65571 -2.74449516,0 -4.5059235,2.11423 -4.5219745,4.09323 z"
             id="path2235"
             inkscape:connector-curvature="0"
             sodipodi:nodetypes="ccccczcccscccc" />
        </g>
      </g>
    </g>
  </g>
</svg>
